<svg width="50" height="50" viewBox="0 0 60 60" fill="none" xmlns="http://www.w3.org/2000/svg">
<path d="M30 35.2734C32.9063 35.2734 35.2852 32.9063 35.2852 29.9883C35.2852 28.8398 34.9102 27.7734 34.2891 26.9063C33.3282 25.582 31.7696 24.7031 30.0118 24.7031C28.2539 24.7031 26.6954 25.5703 25.7344 26.9063C25.1133 27.7734 24.7383 28.8398 24.7383 29.9883C24.7266 32.9063 27.0938 35.2734 30 35.2734Z" fill="white"/>
<path d="M41.5312 23.543V19.1133V18.457H40.875L36.4453 18.4688L36.4687 23.5547L41.5312 23.543Z" fill="white"/>
<path d="M38.2031 30C38.2031 34.5234 34.5234 38.2031 30 38.2031C25.4766 38.2031 21.7969 34.5234 21.7969 30C21.7969 28.9102 22.0195 27.8672 22.4063 26.918H17.9297V39.1992C17.9297 40.7812 19.2188 42.0703 20.8008 42.0703H39.1992C40.7812 42.0703 42.0703 40.7812 42.0703 39.1992V26.918H37.5938C37.9922 27.8672 38.2031 28.9102 38.2031 30Z" fill="white"/>
<path d="M30 0C13.4297 0 0 13.4297 0 30C0 46.5703 13.4297 60 30 60C46.5703 60 60 46.5703 60 30C60 13.4297 46.5703 0 30 0ZM45 26.918V39.1992C45 42.3984 42.3984 45 39.1992 45H20.8008C17.6016 45 15 42.3984 15 39.1992V26.918V20.7891C15 17.5898 17.6016 14.9883 20.8008 14.9883H39.1992C42.3984 14.9883 45 17.5898 45 20.7891V26.918Z" fill="white"/>
</svg>
