<svg width="50" height="50" viewBox="0 0 60 60" fill="none" xmlns="http://www.w3.org/2000/svg">
<path fill-rule="evenodd" clip-rule="evenodd" d="M60 30C60 46.5685 46.5685 60 30 60C13.4315 60 0 46.5685 0 30C0 13.4315 13.4315 0 30 0C46.5685 0 60 13.4315 60 30ZM31.075 22.1473C28.1573 23.361 22.3254 25.873 13.5798 29.6832C12.1596 30.248 11.4157 30.8005 11.348 31.3407C11.2335 32.2537 12.3768 32.6133 13.9337 33.1028C14.1455 33.1695 14.3649 33.2385 14.5899 33.3115C16.1216 33.8095 18.1821 34.392 19.2533 34.415C20.2249 34.436 21.3094 34.0355 22.5066 33.2133C30.678 27.6975 34.896 24.9095 35.1607 24.8494C35.3477 24.807 35.6065 24.7537 35.782 24.9096C35.9573 25.0655 35.9402 25.3607 35.9215 25.44C35.8082 25.9227 31.3203 30.0953 28.9978 32.2545C28.2738 32.9275 27.7603 33.405 27.6553 33.514C27.42 33.7585 27.1802 33.9895 26.95 34.2115C25.527 35.5832 24.4598 36.612 27.009 38.292C28.2343 39.0993 29.2145 39.7667 30.1925 40.4327C31.2605 41.1602 32.3257 41.8857 33.704 42.7892C34.0552 43.0195 34.3905 43.2585 34.7172 43.4912C35.9602 44.3775 37.077 45.1735 38.4565 45.0465C39.2582 44.9728 40.0862 44.219 40.5067 41.971C41.5005 36.658 43.454 25.1463 43.9055 20.4025C43.9453 19.9868 43.8955 19.4549 43.8555 19.2215C43.8155 18.988 43.732 18.6553 43.4285 18.409C43.069 18.1173 42.5143 18.0559 42.266 18.0602C41.1375 18.0801 39.4065 18.682 31.075 22.1473Z" fill="white"/>
</svg>
