<svg width="46" height="46" viewBox="0 0 46 46" fill="none" xmlns="http://www.w3.org/2000/svg">
<g clip-path="url(#clip0_5_34)">
<path d="M5.58797 5.58794C9.3039 1.86931 14.2087 -0.00339241 19.0786 -0.00060725C23.9498 -0.00339241 28.8533 1.86931 32.5692 5.58794C36.2878 9.30388 38.162 14.2087 38.1563 19.0772C38.1605 22.4786 37.2256 25.8843 35.4119 28.9024L44.6504 38.1408C46.4487 39.9392 46.4487 42.8534 44.6504 44.6517C42.8535 46.45 39.9378 46.45 38.141 44.6517L28.9011 35.4118C25.8843 37.227 22.4772 38.1605 19.0786 38.1563C14.2088 38.1605 9.3039 36.2878 5.58806 32.5691C1.87077 28.8533 -0.00327915 23.9497 0.000853658 19.0771C-0.0048065 14.2087 1.87068 9.30388 5.58797 5.58794ZM10.7976 27.361C13.0928 29.6548 16.0689 30.7863 19.0786 30.792C22.0884 30.7863 25.063 29.6549 27.3612 27.361C29.655 25.063 30.7864 22.0883 30.7921 19.0772C30.7864 16.0688 29.655 13.0928 27.3612 10.7961C25.0631 8.5023 22.0884 7.3708 19.0786 7.36514C16.0689 7.3708 13.0928 8.50221 10.7961 10.7961C8.50232 13.0928 7.37083 16.0688 7.36516 19.0772C7.37083 22.0884 8.50232 25.063 10.7976 27.361Z" fill="white"/>
</g>
<defs>
<clipPath id="clip0_5_34">
<rect width="46" height="46" fill="white" transform="matrix(-1 0 0 1 46 0)"/>
</clipPath>
</defs>
</svg>
