<svg width="46" height="46" viewBox="0 0 46 46" fill="none" xmlns="http://www.w3.org/2000/svg">
<path d="M40.986 34.0247C41.4339 34.4741 41.7696 35.0226 41.966 35.6259C42.1624 36.2292 42.214 36.8702 42.1166 37.4971C42.0192 38.1241 41.7755 38.7192 41.4052 39.2345C41.035 39.7497 40.5486 40.1705 39.9855 40.4627C36.7676 42.1827 33.0183 42.6222 29.4898 41.6932C20.125 39.3357 6.66427 25.875 4.30677 16.5102C3.37781 12.9817 3.81736 9.23243 5.53727 6.0145C5.82955 5.45139 6.25034 4.96502 6.76556 4.59479C7.28078 4.22455 7.87595 3.98086 8.50287 3.88343C9.1298 3.78601 9.77085 3.83759 10.3741 4.034C10.9774 4.23042 11.526 4.56615 11.9754 5.014L15.9716 9.00833C16.5479 9.57884 16.9379 10.3105 17.0901 11.107C17.2424 11.9036 17.1498 12.7275 16.8245 13.4703C16.4686 14.3038 15.9632 15.0651 15.3334 15.7167C10.764 20.286 25.7159 35.2379 30.2833 30.6667C30.935 30.0345 31.697 29.5272 32.5316 29.1697C33.2743 28.844 34.0984 28.7511 34.895 28.9034C35.6917 29.0556 36.4234 29.4459 36.9936 30.0227L40.986 34.0247Z" fill="white"/>
</svg>
