<svg width="172" height="50" viewBox="0 0 172 50" fill="none" xmlns="http://www.w3.org/2000/svg">
<path d="M0.667187 25.3C0.767187 0.799998 38.5172 0.849997 38.6172 25.3C38.5672 29.75 36.9172 33.75 34.2172 36.85L38.6172 42.2V43H30.3672L28.8172 41.15C26.0172 42.7 22.7672 43.55 19.4672 43.5C10.0672 43.45 0.717187 37.4 0.667187 25.3ZM17.2672 27.6V26.55H24.9172C24.9172 26.25 24.9672 25.9 24.9672 25.55C24.9172 17.4 14.2672 17.4 14.2172 25.55C14.2672 29.55 16.8672 31.6 19.5172 31.6C19.8672 31.6 20.2172 31.6 20.5672 31.55L17.2672 27.6ZM59.7566 43H46.1066V18.95H38.6566V8H67.2066V18.95H59.7566V43ZM69.1777 43V8C78.5277 8 87.8777 8 97.2277 8V18.3H82.7777V20.65H96.6777V30.4H82.7777V32.7H97.2277V43C87.8777 43 78.5277 43 69.1777 43ZM98.7117 25.55C98.8117 1.8 133.462 1.15 135.712 23.35H122.662C120.912 17.5 112.262 18.2 112.262 25.55C112.312 32.95 121.112 33.55 122.712 27.55H135.712C133.662 49.7 98.8117 49.25 98.7117 25.55ZM137.635 8C142.185 8 146.735 8 151.285 8V19.75H157.535V8C162.035 8 166.585 8 171.135 8V43H157.535V30.8H151.285V43H137.635V8Z" fill="white"/>
</svg>
